<?xml version="1.0" standalone="no"?>
<!DOCTYPE svg PUBLIC "-//W3C//DTD SVG 20010904//EN"
 "http://www.w3.org/TR/2001/REC-SVG-20010904/DTD/svg10.dtd">
<svg version="1.0" xmlns="http://www.w3.org/2000/svg"
 width="768.000000pt" height="768.000000pt" viewBox="0 0 768.000000 768.000000"
 preserveAspectRatio="xMidYMid meet">
<metadata>
Created by potrace 1.11, written by Peter Selinger 2001-2013
</metadata>
<g transform="translate(0.000000,768.000000) scale(0.100000,-0.100000)"
fill="#000000" stroke="none">
<path d="M3599 7676 c-2 -2 -44 -7 -93 -10 -84 -6 -122 -10 -191 -21 -16 -3
-48 -7 -70 -10 -37 -6 -212 -38 -262 -49 -111 -24 -453 -127 -518 -156 -11 -5
-48 -21 -83 -35 -586 -240 -1076 -604 -1522 -1131 -179 -211 -403 -574 -528
-854 -132 -296 -252 -706 -287 -980 -1 -8 -5 -35 -9 -60 -25 -167 -31 -279
-31 -535 1 -227 8 -394 20 -449 2 -12 7 -41 10 -66 3 -25 7 -56 10 -70 2 -13
7 -42 10 -65 6 -41 15 -92 19 -110 1 -5 8 -37 15 -70 31 -146 103 -383 169
-555 66 -174 229 -507 270 -552 8 -10 12 -18 8 -18 -4 0 -2 -6 4 -13 6 -6 43
-61 82 -122 206 -321 462 -606 798 -889 76 -65 419 -306 434 -306 2 0 34 -18
70 -40 157 -96 469 -237 681 -308 189 -64 420 -122 589 -148 21 -3 48 -8 60
-10 11 -2 41 -6 66 -9 25 -3 54 -7 65 -10 64 -12 231 -20 450 -20 262 0 377 6
530 30 17 3 48 7 70 10 37 6 212 38 262 49 317 68 728 228 1038 403 154 87
512 336 565 393 3 3 36 32 75 65 38 33 119 110 180 170 486 486 829 1081 999
1735 40 153 82 364 92 460 3 36 8 68 10 71 24 42 25 750 0 889 -2 14 -8 52
-11 85 -4 33 -9 69 -10 80 -5 38 -35 186 -51 253 -8 37 -17 75 -19 84 -17 80
-92 316 -143 448 -66 174 -229 507 -270 553 -8 9 -12 17 -8 17 4 0 2 6 -4 13
-6 6 -43 62 -82 122 -200 312 -491 637 -776 869 -7 6 -21 18 -30 27 -48 43
-411 299 -426 299 -2 0 -34 18 -71 41 -100 60 -363 187 -500 241 -194 76 -393
137 -575 177 -113 24 -129 27 -254 46 -21 4 -46 8 -55 10 -9 1 -47 6 -86 10
-38 4 -81 9 -95 12 -29 6 -586 14 -591 9z m271 -190 c157 -35 214 -61 272
-126 47 -51 87 -76 139 -85 83 -15 66 -45 -19 -35 -58 7 -98 -5 -105 -31 -6
-23 26 -61 45 -54 7 2 39 8 70 13 69 11 99 -2 42 -17 -52 -14 -84 -49 -91 -99
-7 -51 14 -87 73 -127 31 -21 59 -53 91 -106 80 -135 174 -188 334 -187 52 0
102 0 111 -1 10 -1 34 -19 55 -40 60 -61 120 -55 143 15 13 39 7 118 -11 140
-8 10 -5 18 16 37 26 22 27 25 15 59 -22 61 8 92 99 102 62 7 111 34 143 79
27 39 37 47 64 47 12 0 38 13 59 30 l37 29 51 -26 c48 -24 249 -139 303 -173
53 -34 192 -130 229 -159 22 -17 53 -41 69 -54 134 -101 386 -341 488 -462 18
-21 40 -47 49 -56 27 -27 175 -222 188 -247 7 -13 10 -30 7 -38 -5 -13 -9 -13
-35 1 -34 17 -65 10 -58 -14 13 -45 12 -46 -21 -48 -38 -2 -62 -18 -62 -43 0
-10 -8 -20 -17 -24 -10 -3 -26 -11 -35 -18 -13 -9 -27 -10 -57 -2 -42 12 -63
5 -67 -20 -1 -9 11 -19 34 -27 45 -15 86 -58 118 -124 36 -76 31 -110 -18
-119 -37 -6 -95 11 -102 30 -4 11 -14 15 -32 11 -14 -2 -41 0 -60 6 -29 9 -38
8 -51 -6 -13 -13 -14 -21 -6 -40 6 -13 9 -35 6 -49 -3 -14 0 -29 6 -32 16 -10
13 -69 -4 -92 -20 -26 -19 -47 6 -75 15 -17 19 -33 16 -56 -7 -39 8 -53 60
-60 21 -3 47 -13 59 -24 25 -23 57 -25 75 -3 8 10 26 15 53 13 23 -2 51 0 62
4 22 8 47 54 43 78 -2 8 1 33 5 57 6 33 14 46 37 57 33 18 53 49 46 75 -7 26
18 32 39 9 22 -24 38 -24 72 1 39 29 58 17 77 -46 11 -37 29 -67 58 -97 61
-64 99 -115 113 -156 14 -42 34 -53 34 -18 0 14 7 28 18 32 16 6 16 8 -3 23
-11 9 -33 37 -49 61 -15 24 -41 56 -56 71 -26 25 -77 110 -66 110 13 0 160
-160 176 -190 38 -74 140 -394 140 -438 0 -23 -35 -52 -63 -52 -18 0 -115 72
-170 127 -16 15 -41 55 -56 88 -42 91 -115 145 -206 150 -40 2 -112 -19 -136
-41 -10 -9 -19 -14 -19 -10 0 4 -9 2 -19 -4 -19 -10 -91 10 -143 40 -27 15
-51 1 -45 -28 4 -20 -5 -35 -45 -75 -58 -58 -70 -84 -73 -154 -1 -47 -6 -56
-53 -108 -29 -31 -69 -86 -89 -123 -20 -36 -63 -96 -94 -132 -79 -92 -93 -122
-93 -200 0 -56 5 -74 32 -123 43 -77 43 -148 0 -208 -34 -47 -34 -53 -7 -80
18 -18 20 -25 10 -40 -20 -33 -13 -75 18 -105 15 -16 51 -64 80 -106 28 -43
75 -99 103 -125 29 -26 84 -78 122 -115 38 -38 72 -68 75 -68 3 0 24 5 46 10
22 5 76 12 120 15 125 9 149 13 212 34 80 27 104 28 133 8 13 -9 32 -17 40
-17 21 0 59 -41 65 -69 2 -12 -3 -40 -11 -64 -25 -67 -24 -143 2 -208 13 -31
25 -67 28 -80 2 -13 7 -35 10 -49 12 -49 14 -136 5 -185 -5 -27 -29 -88 -53
-135 -24 -47 -52 -112 -62 -145 -20 -67 -19 -65 -28 -119 -4 -21 -9 -48 -11
-60 -3 -12 -7 -58 -10 -104 -3 -63 -10 -92 -26 -120 -36 -59 -180 -274 -193
-288 -15 -16 -35 -41 -70 -89 -102 -138 -372 -419 -508 -528 -26 -21 -53 -44
-60 -51 -21 -20 -196 -148 -293 -213 -154 -103 -396 -235 -560 -305 -96 -41
-254 -102 -295 -114 -208 -61 -266 -77 -345 -95 -107 -24 -107 -25 -165 -34
-25 -4 -52 -9 -60 -10 -225 -42 -604 -60 -825 -40 -88 7 -91 9 -100 45 -5 20
1 32 26 58 29 29 79 63 94 62 34 -1 48 4 69 24 15 13 26 28 26 34 0 22 71 44
122 38 59 -8 104 11 133 56 14 22 48 46 111 78 98 49 185 116 224 174 14 19
42 44 62 56 44 25 53 39 62 100 7 48 35 80 84 98 66 23 171 51 216 57 75 9
117 39 131 95 4 13 26 52 49 85 64 89 107 183 120 262 3 16 8 44 11 63 9 54
57 114 126 156 41 26 68 87 76 175 4 50 2 59 -18 78 -13 11 -28 21 -33 22 -56
3 -81 10 -99 26 -34 30 -85 50 -172 68 -52 10 -114 33 -175 64 -132 67 -169
78 -280 87 -90 7 -92 8 -78 38 9 22 7 31 -16 66 -14 22 -26 46 -26 53 0 20
-51 92 -82 116 -51 40 -94 52 -182 49 -76 -2 -87 0 -123 24 -23 15 -54 45 -69
67 -28 40 -39 45 -127 65 -19 5 -32 16 -38 36 -8 21 -21 32 -47 41 -20 7 -47
19 -60 27 -17 11 -38 13 -86 8 -55 -5 -69 -3 -100 15 -29 17 -46 20 -79 15
-36 -6 -48 -2 -77 19 -71 53 -155 12 -152 -75 0 -20 -4 -30 -13 -30 -25 0 -43
43 -47 117 -9 135 -75 182 -202 142 -70 -22 -95 -18 -138 26 -53 55 -64 114
-43 244 7 44 -20 98 -59 122 -23 14 -50 19 -108 19 -83 0 -127 14 -129 39 -9
108 6 175 51 239 46 65 39 77 -43 75 -81 -3 -124 -23 -133 -61 -25 -113 -49
-132 -156 -128 -90 3 -137 27 -186 91 -56 74 -75 123 -78 207 -3 67 -1 80 20
111 13 19 31 61 41 92 12 43 28 69 64 105 58 58 115 79 232 83 76 3 95 8 162
41 65 32 82 36 119 31 24 -4 50 -13 59 -21 18 -16 68 -22 87 -10 6 4 22 4 36
0 28 -7 66 -73 66 -115 0 -52 71 -168 111 -182 56 -19 57 76 3 252 -42 136
-26 191 71 249 125 75 212 204 229 340 7 56 31 96 66 109 17 6 37 29 54 60 15
27 39 57 54 66 43 25 102 87 139 145 43 67 90 97 183 115 42 9 99 27 127 41
54 28 78 32 88 16 3 -5 -16 -20 -43 -34 -61 -31 -72 -45 -61 -73 12 -32 52
-30 73 2 22 34 84 63 150 71 89 11 87 60 -3 61 -27 1 -59 7 -72 14 -30 15 -59
48 -59 65 0 7 -13 23 -30 35 -34 25 -32 34 9 42 33 7 45 30 30 59 -10 19 -17
20 -88 15 -95 -7 -156 -34 -216 -93 -25 -26 -48 -44 -51 -42 -11 12 13 42 78
97 54 46 88 65 156 90 114 40 158 46 237 31 75 -14 138 -3 188 32 18 13 49 23
79 24 55 4 101 27 118 60 17 30 19 140 4 193 -29 103 -102 133 -251 106 -57
-10 -98 7 -113 48 -23 62 -42 95 -64 106 -12 7 -23 22 -23 34 -1 12 -10 27
-19 34 -31 22 -61 15 -89 -21 -33 -43 -74 -60 -127 -53 -58 8 -92 36 -99 83
-4 21 -15 44 -25 52 -131 92 -139 96 -247 97 -56 1 -116 5 -133 9 -47 11 -55
-6 -43 -93 10 -69 9 -76 -12 -104 -25 -34 -28 -76 -7 -88 93 -52 84 -135 -21
-199 -58 -36 -73 -68 -61 -132 5 -24 7 -53 5 -64 -2 -10 -4 -27 -4 -36 -1 -26
-37 -58 -66 -58 -46 0 -79 57 -91 163 -7 55 -27 91 -70 123 -35 27 -40 28
-173 30 -197 2 -273 28 -325 109 -47 75 -42 134 21 232 18 29 33 56 33 62 0
14 60 48 100 56 97 20 200 73 200 102 0 10 -6 13 -15 9 -8 -3 -22 -9 -30 -12
-8 -3 -15 -1 -15 5 0 6 9 11 20 11 21 0 52 27 79 67 17 26 55 37 79 24 11 -6
24 -5 37 1 11 6 33 13 49 15 38 4 106 51 106 72 0 20 -73 81 -96 81 -31 0
-104 -32 -105 -46 -1 -8 -2 -19 -3 -25 -2 -18 -49 -38 -88 -39 -42 0 -46 5
-22 32 14 15 15 20 4 33 -16 19 -55 13 -83 -13 -17 -15 -20 -15 -30 -1 -33 45
-97 34 -128 -21 -12 -22 -30 -42 -38 -45 -9 -3 -27 -21 -40 -40 -29 -43 -48
-49 -103 -34 -57 16 -109 12 -164 -12 -25 -10 -76 -22 -113 -25 -83 -7 -133
-20 -191 -49 -96 -48 -300 -86 -300 -56 0 4 21 23 48 43 26 20 56 45 67 55 47
44 274 200 373 258 9 6 46 28 82 49 162 96 493 242 690 304 118 38 292 83 410
107 69 14 290 46 350 51 41 3 76 7 78 9 6 5 284 -3 312 -9z m-3150 -1836 c7
-14 20 -44 87 -203 38 -91 38 -172 0 -282 -27 -79 -31 -103 -31 -205 -1 -97 3
-129 26 -205 15 -49 30 -110 33 -135 8 -55 16 -65 69 -88 57 -26 67 -42 82
-130 8 -45 22 -87 34 -102 36 -45 52 -83 52 -121 -1 -33 4 -41 34 -59 33 -21
60 -63 69 -109 5 -29 38 -81 70 -111 19 -18 28 -21 37 -12 9 9 7 17 -9 34 -29
32 -40 57 -47 103 -9 57 -52 145 -90 185 -47 49 -75 152 -51 189 13 22 44 -9
59 -61 13 -45 48 -105 121 -204 9 -12 18 -31 20 -43 2 -12 31 -48 63 -79 69
-67 107 -135 126 -227 21 -102 53 -140 150 -178 99 -40 178 -78 231 -113 57
-37 74 -41 130 -29 22 5 49 8 59 6 26 -4 66 -31 66 -45 1 -15 30 -49 60 -68
14 -9 64 -26 113 -37 100 -24 161 -52 181 -84 8 -12 22 -44 31 -72 9 -27 22
-56 28 -64 6 -7 74 -45 151 -82 77 -38 149 -78 161 -89 26 -25 46 -13 51 31 2
18 10 36 17 41 21 13 61 8 86 -11 40 -31 23 -61 -57 -99 -60 -29 -71 -38 -90
-80 -12 -26 -36 -67 -54 -90 -32 -42 -33 -48 -34 -140 -1 -54 -2 -108 -3 -122
-1 -30 -89 -140 -120 -151 -16 -6 -21 -17 -21 -41 0 -18 -9 -50 -20 -71 -25
-46 -25 -64 -1 -72 11 -3 25 -12 31 -20 10 -12 6 -21 -24 -47 -36 -31 -46 -61
-25 -73 5 -4 9 -19 7 -33 -2 -20 3 -29 21 -38 66 -33 109 -84 159 -186 83
-172 182 -273 359 -367 60 -31 95 -57 111 -81 23 -34 23 -41 20 -185 -3 -134
-6 -156 -28 -205 -22 -47 -25 -67 -22 -145 2 -78 -1 -97 -24 -148 -30 -69 -33
-129 -9 -212 14 -48 15 -64 5 -101 -10 -33 -17 -43 -29 -40 -9 3 -32 8 -51 11
-19 3 -55 11 -80 16 -25 6 -53 12 -63 14 -10 2 -32 9 -50 14 -18 6 -79 25
-137 42 -328 97 -679 267 -992 481 -46 31 -101 70 -123 87 -22 17 -53 41 -69
54 -131 99 -392 346 -483 456 -16 19 -38 45 -51 60 -13 14 -53 64 -90 111 -37
47 -70 87 -74 88 -5 2 -8 8 -8 13 0 5 -22 39 -48 76 -128 181 -259 419 -357
648 -73 172 -168 466 -199 620 -3 17 -11 53 -17 80 -6 28 -13 64 -15 80 -3 17
-9 55 -14 85 -5 30 -12 78 -15 105 -3 28 -8 64 -10 80 -22 164 -22 625 0 755
2 14 7 48 10 75 3 28 10 75 15 105 5 30 12 73 16 95 3 22 12 67 19 100 8 33
16 71 19 85 17 93 92 333 153 490 45 115 183 405 223 468 22 35 56 41 70 12z"/>
<path d="M2974 7206 c-11 -7 -34 -12 -52 -10 -34 2 -44 -5 -84 -55 -20 -23
-24 -51 -8 -51 5 0 7 -7 4 -15 -8 -19 -34 -20 -34 0 0 8 -9 19 -21 25 -16 9
-19 17 -14 41 5 22 3 31 -11 36 -10 4 -19 2 -22 -5 -2 -7 -14 -12 -26 -12 -13
0 -26 -3 -30 -7 -4 -5 -11 -8 -14 -8 -14 0 -52 -46 -58 -70 -6 -23 -3 -25 27
-26 19 -1 45 0 59 1 14 1 21 -2 17 -7 -5 -4 -25 -8 -45 -8 -26 0 -38 -5 -40
-17 -3 -14 6 -16 80 -12 46 2 127 6 181 8 72 3 103 8 116 20 10 9 29 16 44 16
14 0 32 7 41 15 11 11 20 13 33 6 43 -23 93 -41 111 -41 12 0 24 -4 27 -10 7
-12 92 -55 126 -63 14 -4 31 -18 39 -32 12 -22 11 -27 -6 -41 -10 -8 -34 -22
-52 -30 -33 -15 -33 -15 -17 -40 9 -14 15 -27 13 -28 -10 -9 -128 -25 -141
-20 -24 9 -98 -27 -95 -45 5 -25 83 -26 141 -1 34 15 58 19 76 14 14 -4 32 -8
39 -10 8 -1 21 -9 30 -17 10 -8 25 -17 35 -20 9 -4 17 -15 17 -26 0 -22 19
-31 68 -31 27 0 41 -6 50 -21 10 -16 20 -20 40 -16 14 3 37 0 51 -6 15 -5 30
-9 35 -8 4 1 14 -3 22 -10 8 -6 21 -8 30 -5 27 10 -28 62 -83 78 -61 18 -77
38 -26 32 21 -2 52 -9 69 -15 89 -28 110 -28 106 1 -4 24 -3 24 11 5 15 -19
16 -19 23 -2 5 13 -2 26 -27 47 -19 16 -41 29 -49 30 -8 0 -41 16 -73 36 -55
35 -69 56 -47 69 6 3 10 -1 10 -9 0 -25 17 -19 24 8 l6 24 55 -21 c30 -12 55
-28 55 -34 0 -12 12 -17 36 -14 7 1 14 -5 17 -14 7 -18 37 -9 37 11 0 8 10 14
24 14 29 0 64 28 68 55 2 15 -3 20 -23 21 -14 1 -32 5 -39 9 -7 4 -28 9 -47
11 -19 1 -42 9 -51 17 -10 8 -37 18 -62 22 -25 4 -49 11 -55 15 -5 5 -23 10
-40 12 -21 2 -29 8 -26 18 5 22 9 44 10 51 1 4 11 10 24 13 20 6 21 7 4 17
-10 6 -36 8 -57 5 -31 -4 -39 -2 -42 11 -2 12 -15 17 -45 19 -24 1 -53 11 -71
24 -22 17 -34 20 -48 12 -23 -11 -112 -13 -119 -2 -3 4 2 10 10 14 24 9 17 33
-10 40 -33 8 -128 -19 -150 -44 -16 -18 -20 -18 -46 -4 -21 11 -34 12 -48 4
-32 -17 -41 -12 -41 24 0 38 -18 51 -46 32z"/>
<path d="M6319 6303 c-9 -62 -5 -84 18 -103 13 -10 28 -32 32 -47 4 -15 16
-33 27 -38 56 -29 79 -70 51 -94 -21 -17 -20 -92 2 -120 15 -19 33 -26 87 -34
105 -14 109 -14 105 3 -2 8 -6 26 -9 39 -3 13 -13 32 -23 42 -10 10 -28 39
-40 64 -11 24 -45 70 -75 102 -29 32 -58 72 -64 90 -7 21 -19 33 -33 35 -15 2
-23 12 -27 33 -4 21 -11 31 -28 33 -12 2 -23 0 -23 -5z"/>
<path d="M6243 6161 c5 -20 3 -22 -24 -16 -35 8 -35 6 -8 -46 11 -23 18 -48
15 -56 -3 -8 -1 -23 4 -33 10 -18 36 -20 112 -11 4 1 12 10 18 22 9 16 8 24
-3 37 -9 9 -18 34 -22 55 -7 35 -17 48 -40 54 -5 1 -21 5 -34 9 -21 6 -23 5
-18 -15z"/>
<path d="M2685 3903 c-31 -8 -75 -43 -75 -58 0 -18 23 -32 28 -17 2 7 9 12 15
12 7 0 23 9 37 20 27 21 56 26 62 9 2 -5 19 -12 38 -15 19 -3 52 -15 73 -26
22 -11 41 -17 44 -15 7 8 63 -14 63 -24 0 -5 19 -18 41 -30 31 -15 38 -24 30
-32 -20 -20 -13 -40 12 -32 12 4 56 8 97 10 66 2 75 4 75 21 0 10 -4 19 -10
19 -32 2 -85 17 -85 25 0 5 -18 14 -40 20 -22 6 -46 20 -53 30 -6 11 -18 20
-25 20 -7 0 -40 12 -75 26 -34 14 -71 28 -82 30 -35 8 -149 13 -170 7z"/>
<path d="M3288 3699 c-15 -9 1 -32 17 -25 14 5 25 -14 25 -41 0 -12 -11 -14
-52 -11 -42 2 -53 0 -53 -12 0 -12 16 -16 71 -18 63 -2 73 -5 77 -23 4 -15 12
-20 29 -17 13 2 23 8 23 13 0 19 16 34 29 29 8 -3 31 -1 51 5 27 7 42 7 56 -2
21 -13 34 -5 26 16 -9 24 -99 79 -136 84 -61 7 -152 9 -163 2z"/>
<path d="M3665 3610 c-18 -30 45 -42 81 -15 10 8 15 15 9 15 -5 1 -27 3 -47 6
-20 2 -39 0 -43 -6z"/>
</g>
</svg>
